<svg xmlns="http://www.w3.org/2000/svg" version="1.1" xmlns:xlink="http://www.w3.org/1999/xlink" xmlns:svgjs="http://svgjs.dev/svgjs" width="1500" height="939" viewBox="0 0 1500 939"><g transform="matrix(1,0,0,1,-0.9090909090909918,-1.5145161290323017)"><svg viewBox="0 0 396 248" data-background-color="#000000" preserveAspectRatio="xMidYMid meet" height="939" width="1500" xmlns="http://www.w3.org/2000/svg" xmlns:xlink="http://www.w3.org/1999/xlink"><g id="tight-bounds" transform="matrix(1,0,0,1,0.2400000000000091,0.4000000000000057)"><svg viewBox="0 0 395.52 247.2" height="247.2" width="395.52"><g><svg></svg></g><g><svg viewBox="0 0 395.52 247.2" height="247.2" width="395.52"><g transform="matrix(1,0,0,1,39.55199999999999,49.21732991578176)"><svg viewBox="0 0 316.416 148.76534016843647" height="148.76534016843647" width="316.416"><g><svg viewBox="0 0 316.416 148.76534016843647" height="148.76534016843647" width="316.416"><g><svg viewBox="0 0 316.416 148.76534016843647" height="148.76534016843647" width="316.416"><g><svg viewBox="0 0 316.416 148.76534016843647" height="148.76534016843647" width="316.416"><g id="textblocktransform"><svg viewBox="0 0 316.416 148.76534016843647" height="148.76534016843647" width="316.416" id="textblock"><g><svg viewBox="0 0 316.416 148.76534016843647" height="148.76534016843647" width="316.416"><g transform="matrix(1,0,0,1,0,0)"><svg width="316.416" viewBox="1.32 -31.35 66.67 31.35" height="148.76534016843647" data-palette-color="#ffffff"><path d="M7.89-10.25L18.77-10.25 13.43-28.66 7.89-10.25ZM25.07 0L21.9 0 19.53-8.01 7.15-8.01 4.71 0 1.32 0 11.08-31.35 15.75-31.35 25.07 0ZM50.8-10.25L61.69-10.25 56.34-28.66 50.8-10.25ZM67.99 0L64.81 0 62.45-8.01 50.07-8.01 47.63 0 44.23 0 54-31.35 58.66-31.35 67.99 0Z" opacity="1" transform="matrix(1,0,0,1,0,0)" fill="#ffffff" class="wordmark-text-0" data-fill-palette-color="primary" id="text-0"></path></svg></g></svg></g></svg></g></svg></g><g></g></svg></g></svg></g></svg></g><g><path d="M0 247.2v-247.2h395.52v247.2zM382.104 233.784v-220.368h-368.688v220.368z" fill="#ffffff" fill-rule="nonzero" stroke="none" stroke-width="1" stroke-linecap="butt" stroke-linejoin="miter" stroke-miterlimit="10" stroke-dasharray="" stroke-dashoffset="0" font-family="none" font-weight="none" font-size="none" text-anchor="none" style="mix-blend-mode: normal" data-fill-palette-color="tertiary"></path></g></svg></g><defs></defs></svg><rect width="395.52" height="247.2" fill="none" stroke="none" visibility="hidden"></rect></g></svg></g></svg>